<svg width="35" height="27" viewBox="0 0 35 27" fill="none" xmlns="http://www.w3.org/2000/svg">
<path fill-rule="evenodd" clip-rule="evenodd" d="M11.0075 26.8366C24.2147 26.8366 31.4388 16.5103 31.4388 7.55655C31.4388 7.2626 31.4387 6.97086 31.4177 6.68022C32.823 5.72241 34.0358 4.53318 35 3.17245C33.691 3.72071 32.2997 4.08027 30.877 4.23879C32.375 3.39163 33.4967 2.0607 34.034 0.490235C32.6235 1.27959 31.0817 1.83669 29.4735 2.1356C26.754 -0.592488 22.2058 -0.724665 19.313 1.84158C17.4493 3.49626 16.6565 5.96336 17.2357 8.31658C11.4625 8.04245 6.083 5.46964 2.436 1.23716C0.53025 4.33349 1.505 8.29309 4.66025 10.2814C3.5175 10.25 2.39925 9.95964 1.4 9.43451V9.5205C1.40175 12.7457 3.8115 15.5227 7.161 16.1618C6.104 16.4342 4.9945 16.4737 3.92 16.2772C4.85975 19.0383 7.5565 20.9295 10.6277 20.984C8.085 22.8699 4.94375 23.8939 1.70975 23.8906C1.13925 23.889 0.56875 23.8576 0 23.7932C3.28475 25.7814 7.105 26.8366 11.0075 26.8317" fill="white"/>
</svg>
