<svg width="37" height="37" viewBox="0 0 37 37" fill="none" xmlns="http://www.w3.org/2000/svg">
<g filter="url(#filter0_d_1_110)">
<path fill-rule="evenodd" clip-rule="evenodd" d="M27.0768 12.8546C22.4034 10.0793 14.6937 9.82373 10.2306 11.178C9.51435 11.3941 8.75745 10.9909 8.53995 10.2732C8.32245 9.55689 8.727 8.79997 9.4433 8.58247C14.5661 7.02662 23.0806 7.32665 28.4615 10.521C29.1053 10.9038 29.317 11.7364 28.9342 12.3802C28.5543 13.024 27.7191 13.2374 27.0768 12.8546ZM26.9245 16.9653C26.5968 17.4974 25.9008 17.6639 25.3686 17.3377C21.4725 14.9423 15.5304 14.2491 10.9209 15.6484C10.322 15.8282 9.69125 15.4918 9.51 14.8944C9.3302 14.297 9.6666 13.666 10.264 13.4847C15.5289 11.8868 22.0757 12.6613 26.5519 15.4119C27.084 15.7382 27.2507 16.4346 26.9245 16.9653ZM25.1497 20.9131C24.8887 21.3394 24.3333 21.4743 23.907 21.2133C20.5024 19.1326 16.2163 18.663 11.1688 19.8157C10.6831 19.9274 10.1973 19.6225 10.0871 19.1353C9.97545 18.6496 10.2785 18.1658 10.7671 18.0542C16.2902 16.7912 21.0273 17.3346 24.8495 19.6706C25.2758 19.9316 25.4107 20.4868 25.1497 20.9131ZM18.5 0C10.4917 0 4 6.49165 4 14.5C4 22.5084 10.4917 29 18.5 29C26.5084 29 33 22.5084 33 14.5C33 6.4931 26.5084 0 18.5 0Z" fill="white"/>
</g>
<defs>
<filter id="filter0_d_1_110" x="0" y="0" width="37" height="37" filterUnits="userSpaceOnUse" color-interpolation-filters="sRGB">
<feFlood flood-opacity="0" result="BackgroundImageFix"/>
<feColorMatrix in="SourceAlpha" type="matrix" values="0 0 0 0 0 0 0 0 0 0 0 0 0 0 0 0 0 0 127 0" result="hardAlpha"/>
<feOffset dy="4"/>
<feGaussianBlur stdDeviation="2"/>
<feComposite in2="hardAlpha" operator="out"/>
<feColorMatrix type="matrix" values="0 0 0 0 0 0 0 0 0 0 0 0 0 0 0 0 0 0 0.25 0"/>
<feBlend mode="normal" in2="BackgroundImageFix" result="effect1_dropShadow_1_110"/>
<feBlend mode="normal" in="SourceGraphic" in2="effect1_dropShadow_1_110" result="shape"/>
</filter>
</defs>
</svg>
