<svg width="50" height="50" viewBox="0 0 50 50" fill="none" xmlns="http://www.w3.org/2000/svg">
<path fill-rule="evenodd" clip-rule="evenodd" d="M39.7875 22.1631C31.73 17.3781 18.4375 16.9375 10.7425 19.2725C9.50749 19.645 8.20249 18.9499 7.82749 17.7124C7.45249 16.4774 8.14999 15.1724 9.38499 14.7974C18.2175 12.1149 32.8975 12.6321 42.175 18.1396C43.285 18.7996 43.65 20.2352 42.99 21.3452C42.335 22.4552 40.895 22.8231 39.7875 22.1631ZM39.525 29.2505C38.96 30.168 37.76 30.4551 36.8425 29.8926C30.125 25.7626 19.88 24.5675 11.9325 26.98C10.9 27.29 9.81251 26.7099 9.50001 25.6799C9.19001 24.6499 9.77 23.562 10.8 23.2495C19.8775 20.4945 31.165 21.8298 38.8825 26.5723C39.8 27.1348 40.0875 28.3355 39.525 29.2505ZM36.465 36.0571C36.015 36.7921 35.0575 37.0247 34.3225 36.5747C28.4525 32.9872 21.0625 32.1775 12.36 34.165C11.5225 34.3575 10.685 33.8319 10.495 32.9919C10.3025 32.1544 10.825 31.3204 11.6675 31.1279C21.19 28.9504 29.3575 29.8873 35.9475 33.9148C36.6825 34.3648 36.915 35.3221 36.465 36.0571ZM25 0C11.1925 0 0 11.1925 0 25C0 38.8075 11.1925 50 25 50C38.8075 50 50 38.8075 50 25C50 11.195 38.8075 0 25 0Z" fill="white"/>
</svg>
