<svg width="35" height="35" viewBox="0 0 35 35" fill="none" xmlns="http://www.w3.org/2000/svg">
<path d="M24.5478 8.68323C23.0556 8.3616 21.7044 7.5681 20.6911 6.41842C19.6778 5.26873 19.0554 3.82297 18.9147 2.29189V1.62791H13.7671V22.2127C13.7639 23.124 13.4775 24.0114 12.9479 24.7502C12.4184 25.489 11.6725 26.0421 10.815 26.3316C9.95742 26.6212 9.03138 26.6328 8.16699 26.3647C7.3026 26.0966 6.54329 25.5623 5.99577 24.837C5.43975 24.0995 5.13131 23.2027 5.11518 22.2767C5.09906 21.3507 5.37607 20.4436 5.90607 19.6869C6.43606 18.9302 7.19148 18.3633 8.06278 18.0684C8.93408 17.7735 9.87595 17.7658 10.7518 18.0467V12.777C8.79868 12.5049 6.80999 12.8548 5.06391 13.7777C3.31783 14.7006 1.90171 16.1504 1.01361 17.9242C0.125513 19.6981 -0.190135 21.7073 0.110818 23.6708C0.411771 25.6343 1.31427 27.4539 2.69208 28.8751C4.00602 30.2297 5.69078 31.1592 7.5313 31.5447C9.37182 31.9302 11.2846 31.7544 13.0255 31.0396C14.7664 30.3248 16.2564 29.1035 17.3053 27.5316C18.3543 25.9597 18.9146 24.1084 18.9147 22.2142V11.696C20.995 13.1946 23.4893 13.9981 26.0465 13.9935V8.83982C25.5429 8.84045 25.0406 8.78797 24.5478 8.68323Z" fill="white"/>
</svg>
