<svg width="43" height="43" viewBox="0 0 43 43" fill="none" xmlns="http://www.w3.org/2000/svg">
<path fill-rule="evenodd" clip-rule="evenodd" d="M13.5235 38.6996C29.7496 38.6996 38.6248 25.4632 38.6248 13.9861C38.6248 13.6093 38.6247 13.2354 38.5989 12.8628C40.3254 11.6351 41.8154 10.1107 43 8.36649C41.3918 9.06926 39.6825 9.53014 37.9346 9.73334C39.775 8.64744 41.1532 6.94143 41.8132 4.92838C40.0803 5.94019 38.1861 6.65429 36.2103 7.03744C32.8692 3.54053 27.2814 3.3711 23.7274 6.66056C21.4377 8.78155 20.4637 11.9439 21.1754 14.9603C14.0825 14.6089 7.4734 11.3111 2.9928 5.8858C0.65145 9.85472 1.849 14.9302 5.72545 17.4788C4.3215 17.4386 2.94765 17.0664 1.72 16.3933V16.5035C1.72215 20.6376 4.6827 24.1972 8.7978 25.0164C7.4992 25.3657 6.1361 25.4163 4.816 25.1644C5.97055 28.7037 9.2837 31.1278 13.057 31.1976C9.933 33.615 6.07375 34.9276 2.10055 34.9234C1.39965 34.9213 0.69875 34.881 0 34.7985C4.03555 37.3471 8.729 38.6996 13.5235 38.6933" fill="white"/>
</svg>
