<svg width="45" height="51" viewBox="0 0 45 51" fill="none" xmlns="http://www.w3.org/2000/svg">
<path d="M41.9726 11.715C39.4759 11.1809 37.2151 9.86338 35.5197 7.95439C33.8243 6.04539 32.783 3.64477 32.5476 1.1025V0H23.9351V34.18C23.9298 35.6932 23.4504 37.1667 22.5645 38.3934C21.6785 39.6201 20.4305 40.5384 18.9957 41.0193C17.5609 41.5001 16.0116 41.5193 14.5653 41.0741C13.1191 40.629 11.8487 39.7419 10.9326 38.5375C10.0023 37.313 9.48623 35.8239 9.45925 34.2863C9.43226 32.7487 9.89575 31.2425 10.7825 29.986C11.6693 28.7296 12.9332 27.7883 14.391 27.2985C15.8488 26.8088 17.4246 26.7962 18.8901 27.2625V18.5125C15.6222 18.0608 12.2949 18.6417 9.37346 20.1742C6.45204 21.7066 4.08268 24.1139 2.59678 27.0592C1.11088 30.0046 0.582759 33.3407 1.08629 36.601C1.58983 39.8613 3.09983 42.8827 5.40508 45.2425C7.60348 47.4919 10.4223 49.0351 13.5017 49.6753C16.5811 50.3155 19.7815 50.0235 22.6942 48.8366C25.6069 47.6497 28.0999 45.6218 29.8549 43.0117C31.61 40.4016 32.5474 37.3278 32.5476 34.1825V16.7175C36.0282 19.2058 40.2015 20.5401 44.4801 20.5325V11.975C43.6375 11.976 42.7971 11.8889 41.9726 11.715Z" fill="white"/>
</svg>
