<svg width="50" height="35" viewBox="0 0 50 35" fill="none" xmlns="http://www.w3.org/2000/svg">
<path fill-rule="evenodd" clip-rule="evenodd" d="M19.9711 23.9653V9.93575C24.9516 12.2793 28.809 14.5433 33.3711 16.9841C29.6084 19.0709 24.9516 21.4123 19.9711 23.9653ZM47.7275 2.95821C46.8684 1.82631 45.4041 0.945222 43.8452 0.653522C39.2631 -0.216603 10.6775 -0.219078 6.09788 0.653522C4.84777 0.887872 3.73459 1.45433 2.77833 2.33443C-1.25091 6.07418 0.0116654 26.1293 0.982868 29.3779C1.39127 30.784 1.91923 31.7981 2.58413 32.4638C3.44077 33.3439 4.61367 33.9499 5.9609 34.2216C9.73364 35.002 29.1701 35.4383 43.7655 34.3388C45.1102 34.1045 46.3006 33.479 47.2394 32.5615C50.9648 28.8367 50.7108 7.65533 47.7275 2.95821Z" fill="white"/>
</svg>
