<svg width="40" height="26" viewBox="0 0 40 26" fill="none" xmlns="http://www.w3.org/2000/svg">
<path fill-rule="evenodd" clip-rule="evenodd" d="M15.9769 17.7195V7.34633C19.9613 9.07913 23.0472 10.7531 26.6969 12.5578C23.6867 14.1007 19.9613 15.8319 15.9769 17.7195ZM38.182 2.18725C37.4947 1.35034 36.3233 0.698882 35.0762 0.483204C31.4105 -0.160153 8.54197 -0.161983 4.8783 0.483204C3.87822 0.656478 2.98767 1.07531 2.22266 1.72604C-1.00072 4.49115 0.00933236 19.3196 0.786294 21.7215C1.11301 22.7612 1.53538 23.511 2.0673 24.0032C2.75262 24.6539 3.69093 25.102 4.76872 25.3029C7.78691 25.8799 23.3361 26.2025 35.0124 25.3896C36.0882 25.2163 37.0404 24.7538 37.7915 24.0754C40.7718 21.3214 40.5687 5.66023 38.182 2.18725Z" fill="white"/>
</svg>
